<svg xmlns="http://www.w3.org/2000/svg" viewBox="0 0 512 512" width="512" height="512">
  <rect width="512" height="512" rx="96" fill="#5a7a5a"/>
  <!-- Letter A outline -->
  <path d="M156 420 L236 120 Q256 80 276 120 L356 420 L316 420 L296 350 L216 350 L196 420 Z M228 310 L284 310 L256 200 Z" fill="#faf8f5"/>
  <!-- Dog silhouette (right side, looking up) -->
  <path d="M280 280 Q290 250 310 240 Q325 235 330 220 Q335 205 325 195 Q315 188 310 195 Q305 200 300 200 Q290 198 285 205 Q275 220 278 240 Q270 250 268 265 Q266 275 270 280 Z" fill="#5a7a5a"/>
  <!-- Cat silhouette (left side) -->
  <path d="M232 280 Q225 260 220 245 Q215 230 205 225 Q195 220 190 210 Q188 200 192 195 Q198 192 200 198 Q205 205 210 208 Q220 210 228 220 Q235 230 238 245 Q240 260 240 275 Z" fill="#5a7a5a"/>
  <!-- Dog ear -->
  <path d="M325 195 Q340 180 335 165 Q330 155 320 160 Q312 168 315 185 Z" fill="#5a7a5a"/>
  <!-- Cat ear -->
  <path d="M192 195 Q180 175 175 160 Q173 150 180 150 Q188 152 195 165 Q198 175 198 190 Z" fill="#5a7a5a"/>
</svg>
