<svg xmlns="http://www.w3.org/2000/svg" viewBox="0 0 32 32" fill="none">
  <rect width="32" height="32" rx="8" fill="#6F8469"/>
  <path d="M8 12c0-1 .5-3 2-4s3-.5 3 .5c0 0 .5-2 3-2s3 2 3 2c0-1 1.5-1.5 3-.5s2 3 2 4" stroke="white" stroke-width="1.5" stroke-linecap="round"/>
  <ellipse cx="16" cy="18" rx="7" ry="6" fill="white" fill-opacity="0.9"/>
  <circle cx="13.5" cy="17" r="1.2" fill="#6F8469"/>
  <circle cx="18.5" cy="17" r="1.2" fill="#6F8469"/>
  <ellipse cx="16" cy="19.5" rx="1" ry="0.6" fill="#D4A88C"/>
  <path d="M15 20.1c.3.4.7.6 1 .6s.7-.2 1-.6" stroke="#6F8469" stroke-width="0.8" stroke-linecap="round"/>
  <path d="M10 18.5c-2-.5-3.5-1-3.5-1" stroke="white" stroke-width="0.6" stroke-linecap="round"/>
  <path d="M10 19.5c-2 0-3.5.2-3.5.2" stroke="white" stroke-width="0.6" stroke-linecap="round"/>
  <path d="M22 18.5c2-.5 3.5-1 3.5-1" stroke="white" stroke-width="0.6" stroke-linecap="round"/>
  <path d="M22 19.5c2 0 3.5.2 3.5.2" stroke="white" stroke-width="0.6" stroke-linecap="round"/>
</svg>